<?xml version="1.0" encoding="UTF-8" standalone="no" ?>
<!DOCTYPE svg PUBLIC "-//W3C//DTD SVG 1.1//EN" "http://www.w3.org/Graphics/SVG/1.1/DTD/svg11.dtd">
<svg xmlns="http://www.w3.org/2000/svg" xmlns:xlink="http://www.w3.org/1999/xlink" version="1.1" width="500" height="500" viewBox="0 0 500 500" xml:space="preserve">
<desc>Created with Fabric.js 4.6.0</desc>
<defs>
</defs>
<g transform="matrix(0.83 0 0 0.83 249.26 250.2)" id="o-lqHoiLiUCDr5DD-8HQM"  >
<path style="stroke: rgb(0,0,0); stroke-width: 0; stroke-dasharray: none; stroke-linecap: butt; stroke-dashoffset: 0; stroke-linejoin: miter; stroke-miterlimit: 4; fill: rgb(123,169,255); fill-rule: nonzero; opacity: 1;" vector-effect="non-scaling-stroke"  transform=" translate(0, 0)" d="M 0 -87.2113 C 47.52187 -87.2113 86.09035 -48.14064 86.09035 0 C 86.09035 48.14064 47.52187 87.2113 0 87.2113 C -47.52187 87.2113 -86.09035 48.14064 -86.09035 0 C -86.09035 -48.14064 -47.52187 -87.2113 0 -87.2113 z" stroke-linecap="round" />
</g>
<g transform="matrix(1.06 -0.52 0.32 0.65 257.33 238.52)" id="Q4KZMHe5N5f43MM0lyi_U"  >
<path style="stroke: rgb(255,255,255); stroke-width: 5; stroke-dasharray: none; stroke-linecap: butt; stroke-dashoffset: 0; stroke-linejoin: miter; stroke-miterlimit: 4; fill: rgb(123,169,255); fill-rule: nonzero; opacity: 1;" vector-effect="non-scaling-stroke"  transform=" translate(0, 0)" d="M 152.11401 -58.29166 C 166.36237 -44.32258 -101.54068999999998 56.65391 -153.78467 56.65391 C -206.02865 56.65391 -85.39255 -19.97647 -85.39255 -19.97647 C -85.39255 -19.97647 -233.57548 41.8866 -176.58204 75.8115 C -119.58861000000002 109.73640999999999 214.29791999999998 -31.151740000000004 188.17593 -67.07223000000002 C 162.05393999999998 -102.99272000000002 51.39168999999998 -58.29167000000002 51.39168999999998 -58.29167000000002 C 51.39168999999998 -58.29167000000002 137.86565 -72.26075000000002 152.11400999999998 -58.29167000000002 z" stroke-linecap="round" />
</g>
<g transform="matrix(0.67 0.89 -0.58 0.44 265.91 247.64)" id="XphY_v-ZeaZYXMn1TM_X8"  >
<path style="stroke: rgb(255,255,255); stroke-width: 5; stroke-dasharray: none; stroke-linecap: butt; stroke-dashoffset: 0; stroke-linejoin: miter; stroke-miterlimit: 4; fill: rgb(123,169,255); fill-rule: nonzero; opacity: 1;" vector-effect="non-scaling-stroke"  transform=" translate(0, 0)" d="M 152.11401 -58.29166 C 166.36237 -44.32258 -101.54068999999998 56.65391 -153.78467 56.65391 C -206.02865 56.65391 -85.39255 -19.97647 -85.39255 -19.97647 C -85.39255 -19.97647 -233.57548 41.8866 -176.58204 75.8115 C -119.58861000000002 109.73640999999999 214.29791999999998 -31.151740000000004 188.17593 -67.07223000000002 C 162.05393999999998 -102.99272000000002 51.39168999999998 -58.29167000000002 51.39168999999998 -58.29167000000002 C 51.39168999999998 -58.29167000000002 137.86565 -72.26075000000002 152.11400999999998 -58.29167000000002 z" stroke-linecap="round" />
</g>
</svg>